<svg xmlns="http://www.w3.org/2000/svg" viewBox="0 0 100 100" fill="none" stroke="currentColor" stroke-width="2">
  <path d="M50 75C35 75 25 65 25 50C25 35 35 25 50 25C65 25 75 35 75 50C75 65 65 75 50 75Z" />
  <path d="M35 45C37 45 39 47 39 49C39 51 37 53 35 53C33 53 31 51 31 49C31 47 33 45 35 45Z" />
  <path d="M65 45C67 45 69 47 69 49C69 51 67 53 65 53C63 53 61 51 61 49C61 47 63 45 65 45Z" />
  <path d="M45 55C45 55 50 60 55 55" />
  <path d="M25 35L15 25" />
  <path d="M75 35L85 25" />
</svg> 