<?xml version="1.0" encoding="UTF-8"?>
<svg width="60" height="120" viewBox="0 0 60 120" version="1.1" xmlns="http://www.w3.org/2000/svg">
  <path d="M25 10 C25 5, 35 5, 35 10 L35 30 C42 35, 45 40, 45 50 L42 80 C40 90, 45 100, 45 110 C45 115, 15 115, 15 110 C15 100, 20 90, 18 80 L15 50 C15 40, 18 35, 25 30 Z" 
        fill="#8fa3a3" 
        stroke="#768989" 
        stroke-width="1"/>
  <path d="M20 60 C30 70, 30 70, 40 60 M20 70 C30 80, 30 80, 40 70 M20 80 C30 90, 30 90, 40 80" 
        fill="none"
        stroke="#ddd" 
        stroke-width="1"/>
</svg> 